<?xml version="1.0" encoding="UTF-8" standalone="no"?>
<!DOCTYPE svg PUBLIC "-//W3C//DTD SVG 1.1//EN" "http://www.w3.org/Graphics/SVG/1.1/DTD/svg11.dtd">
<svg width="100%" height="100%" viewBox="0 0 1078 278" version="1.1" xmlns="http://www.w3.org/2000/svg" xmlns:xlink="http://www.w3.org/1999/xlink" xml:space="preserve" xmlns:serif="http://www.serif.com/" style="fill-rule:evenodd;clip-rule:evenodd;stroke-linejoin:round;stroke-miterlimit:2;">
    <g id="Artboard1" transform="matrix(1,0,0,1,-0.361686,-164.234)">
        <rect x="0.362" y="164.234" width="1077.38" height="277.8" style="fill:none;"/>
        <clipPath id="_clip1">
            <rect x="0.362" y="164.234" width="1077.38" height="277.8"/>
        </clipPath>
        <g clip-path="url(#_clip1)">
            <g id="applesaucelabs" transform="matrix(1,0,0,1,0.361686,0.233603)">
                <path d="M-30.628,326.202C20.327,325.872 88.545,324.791 116.856,325.847C124.637,326.137 164.642,329.283 172.523,327.95C180.403,326.617 178.173,327.807 182.087,324.219C184.052,322.418 188.714,319.676 189.676,317.19C191.378,312.788 194.992,302.905 196.736,298.123C197.902,294.926 199.788,291.112 200.142,288.498C200.419,286.453 200.208,284.005 198.861,282.441C197.398,280.742 193.6,279.02 191.36,278.3C189.137,277.586 186.781,277.028 184.448,277.148C181.664,277.292 177.568,277.932 174.656,279.164C171.779,280.382 169.184,282.364 166.976,284.54C164.768,286.716 162.911,289.438 161.408,292.22C159.904,295.004 158.72,298.204 157.952,301.244C157.194,304.246 156.738,307.365 156.8,310.46C156.864,313.612 157.36,317.484 158.336,320.156C159.213,322.558 160.416,325.262 162.656,326.492C165.021,327.791 169.284,328.329 172.523,327.95C175.761,327.571 179.229,326.012 182.087,324.219C184.946,322.426 187.988,320.197 189.676,317.19C192.117,312.841 194.992,302.905 196.736,298.123C197.902,294.926 198.996,291.702 200.142,288.498C200.853,286.512 202.451,283.799 202.948,282.362C203.267,281.437 202.177,282.101 202.177,282.101C202.177,282.101 200.608,286.011 200.142,288.498C199.515,291.843 197.671,294.851 196.736,298.123C195.097,303.863 191.216,318.26 190.304,322.94C190.088,324.054 190.752,325.356 191.264,326.204C191.745,327.001 192.53,327.644 193.376,328.028C194.256,328.428 195.477,328.718 196.544,328.604C198.034,328.447 201.067,327.513 202.315,327.081C202.952,326.86 203.48,326.399 204.032,326.012C205.501,324.985 209.403,323.263 211.128,320.917C214.101,316.872 219.592,308.299 221.872,301.742C224.103,295.326 225.071,280.239 224.808,281.577C224.545,282.914 221.548,300.334 220.292,309.767C218.221,325.316 215.097,362.392 212.387,374.87C211.477,379.056 206.418,384.615 204.031,384.633C201.643,384.651 197.26,378.676 198.063,374.979C200.773,362.501 216.047,323.873 220.292,309.767C222.183,303.482 218.712,294.8 223.531,290.344C228.805,285.468 238.854,276.769 251.936,280.508C265.435,284.367 254.896,307.276 254.144,309.5C253.431,311.609 244.373,331.959 259.04,328.604C262.635,327.782 269.828,324.936 274.565,321.874C279.803,318.488 287.265,314.48 290.47,308.288C294.104,301.268 296.367,279.753 296.367,279.753C296.367,279.753 288.018,358.181 282.773,375.201C280.185,383.6 275.807,384.37 274.41,384.334C272.635,384.288 266.604,382.095 268.232,374.824C271.061,362.183 285.347,321.033 290.47,308.288C293.121,301.691 294.049,291.973 294.787,287.399C295.536,282.758 312.612,275.971 324.896,282.62C326.578,283.531 337.882,289.63 320.672,309.788C319.036,311.705 305.874,326.127 320.525,324.872C321.698,324.772 328.871,323.172 334.485,318.815C340.161,314.411 344.28,307.239 345.824,305.276C348.96,301.308 352.064,297.084 355.136,292.604C358.208,288.124 361.12,283.58 363.872,278.972C366.624,274.3 369.04,269.58 371.072,265.148C372.977,260.995 374.848,256.348 376.064,252.38C377.28,248.412 377.839,245.422 377.839,242.414C377.839,241.838 377.728,239.356 377.408,238.268C377.152,237.116 376.704,236.22 376.064,235.58C375.424,234.876 374.464,234.524 373.184,234.524C371.648,234.524 370.208,235.196 368.864,236.54C367.584,237.884 366.432,239.932 365.408,242.684C364.384,245.372 363.2,249.529 362.528,253.052C360.528,263.548 355.056,295.036 353.408,305.66C352.838,309.337 352.352,313.868 352.64,316.796C352.866,319.085 353.856,321.82 355.136,323.228C356.48,324.572 358.209,325.195 360.32,325.244C361.757,325.278 362.816,324.924 364.544,324.284C366.208,323.644 368.448,322.492 371.264,320.828C374.08,319.1 379.14,315.939 382.976,313.34C387.04,310.588 392.256,306.94 395.648,304.316C399.104,301.628 401.888,299.228 404,297.116C406.112,294.94 407.616,292.956 408.512,291.164C409.472,289.308 409.952,287.612 409.952,286.076C409.952,284.284 409.408,282.908 408.32,281.948C407.232,280.924 405.6,280.412 403.424,280.412C400.736,280.412 398.208,281.148 395.84,282.62C393.472,284.092 391.392,286.076 389.6,288.572C387.872,291.068 386.528,293.852 385.568,296.924C384.608,299.932 384.128,303.036 384.128,306.236C384.128,309.5 384.512,312.316 385.28,314.684C386.048,317.052 387.104,319.036 388.448,320.636C389.792,322.172 391.296,323.324 392.96,324.092C394.624,324.86 396.384,325.239 398.24,325.244C403.093,325.258 406.877,323.909 410.72,321.98C414.928,319.868 419.264,316.604 423.488,312.572C427.776,308.476 443.804,291.338 447.769,287.486C451.295,284.061 452.228,282.477 452.847,280.512C453.348,278.921 452.164,276.648 451.483,275.698C450.928,274.924 449.659,274.988 448.765,274.816C447.896,274.649 446.975,274.454 446.116,274.666C445.152,274.903 443.721,275.338 442.979,276.243C442.158,277.246 441.28,279.089 441.187,280.682C441.071,282.654 441.442,285.831 442.284,288.074C443.126,290.317 445.28,292.284 446.24,294.14C447.264,295.932 448.32,297.66 449.408,299.324C450.56,300.924 451.616,302.524 452.576,304.124C453.6,305.66 454.432,307.26 455.072,308.924C455.712,310.524 456.032,312.252 456.032,314.108C456.032,315.9 455.744,317.532 455.168,319.004C454.656,320.476 453.824,321.724 452.672,322.748C451.584,323.772 450.208,324.572 448.544,325.148C446.944,325.66 444.419,327.197 442.177,327.436C439.863,327.683 436.806,327.708 434.665,326.628C432.524,325.548 430.008,323.188 429.329,320.957C428.651,318.725 428.949,315.19 430.593,313.237C432.237,311.284 436.631,308.863 439.193,309.238C441.754,309.612 444.338,313.073 445.96,315.485C447.583,317.897 451.872,326.108 453.536,327.068C455.2,328.092 457.088,328.604 459.2,328.604C459.968,328.604 464.607,327.55 466.88,326.108C469.328,324.556 471.648,322.108 473.888,319.292C476.192,316.412 478.336,313.212 480.32,309.692C482.304,306.108 490.176,291.42 493.472,286.844C495.044,284.662 497.68,283.292 500.096,282.236C502.512,281.18 505.632,280.652 507.968,280.508C510.033,280.381 512.623,280.998 514.112,281.372C515.12,281.626 516.905,282.757 516.905,282.757C516.905,282.757 515.12,281.626 514.112,281.372C512.623,280.998 510.033,280.381 507.968,280.508C505.632,280.652 502.561,281.197 500.096,282.236C497.632,283.276 495.101,284.859 493.181,286.747C491.261,288.635 489.798,291.109 488.576,293.564C487.252,296.227 485.908,299.923 485.236,302.723C484.639,305.21 484.544,307.42 484.544,310.364C484.544,313.116 484.864,315.612 485.504,317.852C486.144,320.092 487.136,321.884 488.48,323.228C489.888,324.572 491.943,325.248 493.856,325.244C509.364,325.218 512.208,316.348 513.014,314.58C514.239,311.892 516.069,307.101 516.948,303.177C518.023,298.378 518.255,289.023 519.463,285.787C520.063,284.179 522.355,279.6 521.342,280.202C520.33,280.805 519.368,282.006 519.151,283.234C517.928,290.141 515.175,316.296 522.607,323.338C522.998,323.708 531.967,331.364 539.285,324.844C545.581,319.235 552.838,279.469 552.838,279.469C552.838,279.469 549.981,291.18 550.037,294.17C550.284,307.36 542.756,322.907 565.34,326.47C572.34,327.574 582.648,323.518 583.237,312.477C583.665,304.44 583.791,278.602 583.791,278.602C583.791,278.602 583.426,305.115 583.237,312.477C583.148,315.914 582.624,321.65 584.236,323.869C585.848,326.088 590.27,326.487 592.908,325.792C595.546,325.097 598.51,321.566 600.671,318.849C603.006,315.914 607.239,301.04 608.439,297.392C619.256,264.497 643.688,282.193 643.688,282.193C643.688,282.193 619.193,264.543 608.439,297.392C606.164,304.342 606.987,316.403 620.036,322.113C626.358,324.879 634.84,326.49 646.592,323.804C649.942,323.039 653.058,320.789 656.492,318.765C657.501,318.171 658.562,317.563 659.552,316.892C662.543,314.868 670.784,309.436 674.432,306.62C678.144,303.804 681.152,301.212 683.456,298.844C685.76,296.476 687.424,294.236 688.448,292.124C689.536,289.948 690.08,287.868 690.08,285.884C690.08,284.54 689.792,283.196 689.216,281.852C688.64,280.508 687.648,279.388 686.24,278.492C684.832,277.596 682.848,277.148 680.288,277.148C676.768,277.148 673.536,278.044 670.592,279.836C667.712,281.564 665.248,283.868 663.2,286.748C661.152,289.628 659.584,292.796 658.496,296.252C657.408,299.708 656.864,303.068 656.864,306.332C656.864,310.556 657.488,314.444 658.784,317.66C660.016,320.718 662.08,323.644 664.64,325.628C667.264,327.612 670.891,328.554 674.24,328.604C680.369,328.696 681.87,328.918 687.716,325.088C692.712,321.814 693.785,319.829 696.474,316.982C703.26,309.798 705.194,307.011 705.442,306.706C708.486,302.954 713.972,296.56 716.576,292.508C719.357,288.183 722.752,283.276 725.408,278.684C727.988,274.224 730.528,269.436 732.512,264.956C734.496,260.412 736.064,256.108 737.12,252.284C738.045,248.938 738.9,244.359 738.848,242.012C738.809,240.206 738.784,239.356 738.464,238.268C738.208,237.116 737.76,236.22 737.12,235.58C736.48,234.876 735.52,234.524 734.24,234.524C732.704,234.524 731.264,235.196 729.92,236.54C728.64,237.884 727.488,239.932 726.464,242.684C725.44,245.372 724.256,249.529 723.584,253.052C721.584,263.548 716.112,295.036 714.464,305.66C713.894,309.337 713.408,313.868 713.696,316.796C713.922,319.085 714.912,321.82 716.192,323.228C717.536,324.572 719.552,325.26 721.376,325.244C723.2,325.228 725.088,324.54 727.136,323.132C729.12,321.724 731.466,319.448 733.28,317.276C735.312,314.844 737.344,311.804 739.328,308.54C741.376,305.212 743.378,299.822 744.626,297.102C745.369,295.481 745.969,293.809 746.816,292.22C748.352,289.34 750.208,286.78 752.384,284.54C754.624,282.236 757.184,280.444 760.064,279.164C763.008,277.82 766.272,277.148 769.856,277.148C772.16,277.148 774.702,277.025 776.768,278.3C783.328,282.348 781.751,284.549 781.472,288.188C781.196,291.796 779.518,298.216 777.615,304.046C776.429,307.679 775.155,311.084 774.08,313.436C772.02,317.946 767.936,322.524 764.672,324.956C761.472,327.388 758.144,328.604 754.688,328.604C752.192,328.604 749.888,327.9 748.064,326.492C746.24,325.084 744.768,322.908 743.744,320.156C742.72,317.404 742.208,314.172 742.208,310.46C742.208,307.452 743.032,300.824 743.032,300.824C743.032,300.824 742.133,307.57 742.208,310.46C742.288,313.512 742.768,317.484 743.744,320.156C744.621,322.558 746.24,325.084 748.064,326.492C749.888,327.9 752.381,328.818 754.688,328.604C757.456,328.348 761.882,327.139 764.672,324.956C767.904,322.428 771.931,317.904 774.08,313.436C777.744,305.82 784.032,277.676 783.68,277.916C783.336,278.152 783.085,278.562 783.008,278.972C781.76,285.676 777.408,310.812 776.192,318.14C775.929,319.727 775.648,321.596 775.712,322.94C775.84,324.284 776.16,325.372 776.672,326.204C777.184,327.036 777.888,327.644 778.784,328.028C779.68,328.412 783.001,328.414 784.34,328.033C785.575,327.681 787.057,327.168 788.192,326.492C790.56,325.084 793.564,322.815 795.968,320.636C798.688,318.172 801.568,315.1 804.512,311.708C807.456,308.316 810.4,304.668 813.344,300.764C816.288,296.86 819.136,292.764 821.888,288.476C824.64,284.188 827.2,279.9 829.568,275.612C831.936,271.324 834,267.052 835.712,263.036C837.312,259.284 838.913,254.869 839.84,251.516C840.615,248.717 841.087,244.786 841.279,242.922C841.344,242.296 841.12,238.396 840.608,236.732C840.096,235.068 839.232,233.724 838.016,232.7C836.8,231.676 835.136,231.164 833.024,231.164C829.696,231.164 826.333,233.626 824.576,236.444C822.272,240.14 820.427,247.559 819.2,253.34C816.64,265.404 810.976,298.14 809.216,308.828C808.747,311.677 808.448,314.972 808.64,317.468C808.832,319.964 809.408,322.076 810.368,323.804C811.328,325.468 812.608,326.716 814.208,327.548C815.872,328.38 817.792,328.796 819.968,328.796C823.168,328.796 826.176,327.964 828.992,326.3C831.808,324.636 834.368,322.428 836.672,319.676C839.04,316.924 841.056,313.884 842.72,310.556C844.384,307.164 845.664,303.772 846.56,300.38C847.456,296.988 847.904,293.852 847.904,290.972C847.904,289.308 847.712,287.676 847.328,286.076C847.008,284.412 846.56,282.908 845.984,281.564C845.408,280.22 844.768,279.164 844.064,278.396C843.36,277.564 842.592,277.148 841.76,277.148C841.056,277.148 840.448,277.436 839.936,278.012C839.424,278.524 839.168,279.164 839.168,279.932C839.168,280.892 839.488,281.884 840.128,282.908C840.832,283.932 841.573,285.225 842.596,286.194C846.262,289.669 854.24,296.06 855.968,297.02C857.696,297.916 859.424,298.364 861.152,298.364C863.328,298.364 865.312,297.724 867.104,296.444C868.896,295.1 877.13,285.45 879.594,282.49C880.542,281.351 881.504,279.58 881.888,278.684C882.336,277.788 882.56,277.052 882.56,276.476C882.56,276.092 882.443,275.736 882.176,275.516C881.904,275.292 881.568,275.132 880.928,275.132C880.096,275.132 879.232,275.58 878.336,276.476C877.504,277.308 877.088,278.684 877.088,280.604C877.088,283.292 877.376,285.756 877.952,287.996C878.592,290.236 879.392,292.284 880.352,294.14C881.376,295.932 882.432,297.66 883.52,299.324C884.672,300.924 885.728,302.524 886.688,304.124C887.712,305.66 888.544,307.26 889.184,308.924C889.824,310.524 890.128,312.428 890.144,314.108C890.16,315.766 889.84,317.564 889.28,319.004C888.737,320.402 887.884,321.728 886.784,322.748C885.68,323.772 884.24,324.988 882.656,325.148C878.261,325.595 865.211,326.183 860.413,325.427C857.737,325.006 854.671,322.66 853.864,320.617C853.056,318.575 854.078,314.881 855.57,313.172C857.061,311.464 860.235,310.119 862.812,310.367C865.764,310.651 906.262,327.301 928.431,327.005C962.163,326.553 1043.97,327.005 1101.74,327.005" style="fill:none;fill-rule:nonzero;stroke:black;stroke-width:1.91px;"/>
            </g>
        </g>
    </g>
</svg>
